<?xml version="1.0" encoding="UTF-8" standalone="no"?>
<!-- Created with Inkscape (http://www.inkscape.org/) -->
<svg version="1.1" id="svg579" xmlns="http://www.w3.org/2000/svg" xmlns:svg="http://www.w3.org/2000/svg"
     width="48" height="48" viewBox="0 0 12.7 12.7">
  <defs id="defs576" />
  <g id="layer1">
    <path
       d="M 6.3494619,0 C 2.8429901,0 0,2.9149192 0,6.5109013 c 0,2.8765455 1.8193113,5.3166367 4.342645,6.1779667 0.3177072,0.05959 0.4334851,-0.141497 0.4334851,-0.314162 0,-0.154276 -0.00541,-0.563959 -0.00862,-1.107128 C 3.001216,11.660866 2.6285433,10.394658 2.6285433,10.394658 2.3396836,9.6428525 1.9233506,9.4425998 1.9233506,9.4425998 1.3468005,9.0385257 1.9670098,9.0465132 1.9670098,9.0465132 2.6043733,9.0928517 2.9396225,9.7175946 2.9396225,9.7175946 3.5060375,10.712411 4.4260228,10.425033 4.7877802,10.25877 4.8454731,9.8378934 5.0092008,9.5509232 5.1908586,9.3882512 3.7808634,9.2239817 2.2983605,8.6652118 2.2983605,6.1703642 c 0,-0.7106447 0.2475387,-1.2917796 0.6537365,-1.74703 -0.065494,-0.164666 -0.283403,-0.8265477 0.06198,-1.723045 0,0 0.53328,-0.1750667 1.7464146,0.6674785 0.5063817,-0.1442952 1.0497969,-0.2166354 1.5897048,-0.2190373 0.5391266,0.00227 1.0825418,0.074776 1.5897037,0.2190373 1.2123545,-0.8425452 1.7444653,-0.6674785 1.7444653,-0.6674785 0.3465536,0.8964973 0.1286415,1.558379 0.063152,1.723045 0.4069766,0.4552504 0.6529566,1.0363853 0.6529566,1.74703 0,2.5012488 -1.4848424,3.0516122 -2.8995151,3.2126867 0.2280473,0.2010457 0.4311457,0.5983333 0.4311457,1.2058551 0,0.870122 -0.00785,1.572371 -0.00785,1.7858 0,0.174262 0.1142187,0.376906 0.4366034,0.313357 C 10.882248,11.825136 12.7,9.3866537 12.7,6.5109013 12.7,2.9149192 9.8566199,0 6.3493679,0"
       style="fill:#1b1817;fill-opacity:1;fill-rule:evenodd;stroke:none;stroke-width:0.394725"
       id="path33" />
  </g>
</svg>
